<mxfile host="app.diagrams.net" modified="2023-12-10T03:14:52.779Z" agent="Mozilla/5.0 (Macintosh; Intel Mac OS X 10_15_7) AppleWebKit/537.36 (KHTML, like Gecko) Chrome/111.0.0.0 Safari/537.36" etag="h-WspyMa4YQmksLxKEyl" version="22.1.7" type="github">
  <diagram id="prtHgNgQTEPvFCAcTncT" name="Page-1">
    <mxGraphModel dx="954" dy="616" grid="1" gridSize="10" guides="1" tooltips="1" connect="1" arrows="1" fold="1" page="1" pageScale="1" pageWidth="827" pageHeight="1169" math="0" shadow="0">
      <root>
        <mxCell id="0" />
        <mxCell id="1" parent="0" />
        <mxCell id="AhhsZ49npr2kLPAkrbk7-1" value="" style="swimlane;fontStyle=2;childLayout=stackLayout;horizontal=1;startSize=28;horizontalStack=1;resizeParent=1;resizeParentMax=0;resizeLast=0;collapsible=0;marginBottom=0;swimlaneFillColor=none;fontFamily=Permanent Marker;fontSize=16;points=[];verticalAlign=top;stackBorder=0;resizable=1;strokeWidth=2;sketch=1;disableMultiStroke=1;" vertex="1" parent="1">
          <mxGeometry x="20" y="20" width="860" height="440" as="geometry" />
        </mxCell>
        <object label="起步" status="New" id="AhhsZ49npr2kLPAkrbk7-2">
          <mxCell style="swimlane;strokeWidth=2;fontFamily=Permanent Marker;html=0;startSize=1;verticalAlign=bottom;spacingBottom=5;points=[];childLayout=stackLayout;stackBorder=20;stackSpacing=20;resizeLast=0;resizeParent=1;horizontalStack=0;collapsible=0;sketch=1;strokeColor=none;fillStyle=solid;fillColor=#A0522D;" vertex="1" parent="AhhsZ49npr2kLPAkrbk7-1">
            <mxGeometry y="28" width="180" height="412" as="geometry" />
          </mxCell>
        </object>
        <object label="尝试去做销售" placeholders="1" id="AhhsZ49npr2kLPAkrbk7-5">
          <mxCell style="whiteSpace=wrap;html=1;strokeWidth=2;fillColor=#fff2cc;fontStyle=1;spacingTop=0;rounded=1;arcSize=9;points=[];fontFamily=Permanent Marker;hachureGap=8;fillWeight=1;strokeColor=#d6b656;gradientColor=#f7bbe4;" vertex="1" parent="AhhsZ49npr2kLPAkrbk7-2">
            <mxGeometry x="20" y="21" width="140" height="59" as="geometry" />
          </mxCell>
        </object>
        <object label="我更快乐了吗？" placeholders="1" id="AhhsZ49npr2kLPAkrbk7-21">
          <mxCell style="whiteSpace=wrap;html=1;strokeWidth=2;fillColor=#fff2cc;fontStyle=1;spacingTop=0;rounded=1;arcSize=9;points=[];fontFamily=Permanent Marker;hachureGap=8;fillWeight=1;strokeColor=#d6b656;gradientColor=#f7bbe4;" vertex="1" parent="AhhsZ49npr2kLPAkrbk7-2">
            <mxGeometry x="20" y="100" width="140" height="59" as="geometry" />
          </mxCell>
        </object>
        <object label="我每天精神饱满吗？" placeholders="1" id="AhhsZ49npr2kLPAkrbk7-22">
          <mxCell style="whiteSpace=wrap;html=1;strokeWidth=2;fillColor=#fff2cc;fontStyle=1;spacingTop=0;rounded=1;arcSize=9;points=[];fontFamily=Permanent Marker;hachureGap=8;fillWeight=1;strokeColor=#d6b656;gradientColor=#f7bbe4;" vertex="1" parent="AhhsZ49npr2kLPAkrbk7-2">
            <mxGeometry x="20" y="179" width="140" height="59" as="geometry" />
          </mxCell>
        </object>
        <object label="感受很好，&lt;br&gt;选择一个深挖方向就读" placeholders="1" id="AhhsZ49npr2kLPAkrbk7-23">
          <mxCell style="whiteSpace=wrap;html=1;strokeWidth=2;fillColor=#fff2cc;fontStyle=1;spacingTop=0;rounded=1;arcSize=9;points=[];fontFamily=Permanent Marker;hachureGap=8;fillWeight=1;strokeColor=#d6b656;gradientColor=#f7bbe4;" vertex="1" parent="AhhsZ49npr2kLPAkrbk7-2">
            <mxGeometry x="20" y="258" width="140" height="59" as="geometry" />
          </mxCell>
        </object>
        <object label="努力" status="In progress" id="AhhsZ49npr2kLPAkrbk7-6">
          <mxCell style="swimlane;strokeWidth=2;fontFamily=Permanent Marker;html=0;startSize=1;verticalAlign=bottom;spacingBottom=5;points=[];childLayout=stackLayout;stackBorder=20;stackSpacing=20;resizeLast=0;resizeParent=1;horizontalStack=0;collapsible=0;sketch=1;strokeColor=none;fillStyle=solid;fillColor=#006600;" vertex="1" parent="AhhsZ49npr2kLPAkrbk7-1">
            <mxGeometry x="180" y="28" width="180" height="412" as="geometry" />
          </mxCell>
        </object>
        <object label="考雅思" placeholders="1" id="AhhsZ49npr2kLPAkrbk7-24">
          <mxCell style="whiteSpace=wrap;html=1;strokeWidth=2;fillColor=#fff2cc;fontStyle=1;spacingTop=0;rounded=1;arcSize=9;points=[];fontFamily=Permanent Marker;hachureGap=8;fillWeight=1;strokeColor=#d6b656;gradientColor=#f7bbe4;" vertex="1" parent="AhhsZ49npr2kLPAkrbk7-6">
            <mxGeometry x="20" y="21" width="140" height="59" as="geometry" />
          </mxCell>
        </object>
        <object label="学习&lt;br&gt;人工智能相关课程" placeholders="1" id="AhhsZ49npr2kLPAkrbk7-25">
          <mxCell style="whiteSpace=wrap;html=1;strokeWidth=2;fillColor=#fff2cc;fontStyle=1;spacingTop=0;rounded=1;arcSize=9;points=[];fontFamily=Permanent Marker;hachureGap=8;fillWeight=1;strokeColor=#d6b656;gradientColor=#f7bbe4;" vertex="1" parent="AhhsZ49npr2kLPAkrbk7-6">
            <mxGeometry x="20" y="100" width="140" height="59" as="geometry" />
          </mxCell>
        </object>
        <object label="学习数学&lt;br&gt;头痛" placeholders="1" id="AhhsZ49npr2kLPAkrbk7-26">
          <mxCell style="whiteSpace=wrap;html=1;strokeWidth=2;fillColor=#fff2cc;fontStyle=1;spacingTop=0;rounded=1;arcSize=9;points=[];fontFamily=Permanent Marker;hachureGap=8;fillWeight=1;strokeColor=#d6b656;gradientColor=#f7bbe4;" vertex="1" parent="AhhsZ49npr2kLPAkrbk7-6">
            <mxGeometry x="20" y="179" width="140" height="59" as="geometry" />
          </mxCell>
        </object>
        <object label="进阶" status="In progress" id="AhhsZ49npr2kLPAkrbk7-14">
          <mxCell style="swimlane;strokeWidth=2;fontFamily=Permanent Marker;html=0;startSize=1;verticalAlign=bottom;spacingBottom=5;points=[];childLayout=stackLayout;stackBorder=20;stackSpacing=20;resizeLast=0;resizeParent=1;horizontalStack=0;collapsible=0;sketch=1;strokeColor=none;fillStyle=solid;fillColor=#006600;" vertex="1" parent="AhhsZ49npr2kLPAkrbk7-1">
            <mxGeometry x="360" y="28" width="180" height="412" as="geometry" />
          </mxCell>
        </object>
        <object label="未来" status="Completed" id="AhhsZ49npr2kLPAkrbk7-9">
          <mxCell style="swimlane;strokeWidth=2;fontFamily=Permanent Marker;html=0;startSize=1;verticalAlign=bottom;spacingBottom=5;points=[];childLayout=stackLayout;stackBorder=20;stackSpacing=20;resizeLast=0;resizeParent=1;horizontalStack=0;collapsible=0;sketch=1;strokeColor=none;fillStyle=solid;fillColor=#1BA1E2;" vertex="1" parent="AhhsZ49npr2kLPAkrbk7-1">
            <mxGeometry x="540" y="28" width="180" height="412" as="geometry" />
          </mxCell>
        </object>
        <object label="Task 6&lt;br&gt;&lt;span style=&quot;font-weight: normal&quot;&gt;&lt;i&gt;&lt;font style=&quot;font-size: 10px&quot;&gt;%status%&lt;/font&gt;&lt;/i&gt;&lt;/span&gt;" placeholders="1" id="AhhsZ49npr2kLPAkrbk7-10">
          <mxCell style="whiteSpace=wrap;html=1;strokeWidth=2;fillColor=swimlane;fontStyle=1;spacingTop=0;rounded=1;arcSize=9;points=[];sketch=1;fontFamily=Permanent Marker;hachureGap=8;fillWeight=1;" vertex="1" parent="AhhsZ49npr2kLPAkrbk7-9">
            <mxGeometry x="20" y="21" width="140" height="80" as="geometry" />
          </mxCell>
        </object>
        <object label="Task 7&lt;br&gt;&lt;span style=&quot;font-weight: normal&quot;&gt;&lt;i&gt;&lt;font style=&quot;font-size: 10px&quot;&gt;%status%&lt;/font&gt;&lt;/i&gt;&lt;/span&gt;" placeholders="1" id="AhhsZ49npr2kLPAkrbk7-11">
          <mxCell style="whiteSpace=wrap;html=1;strokeWidth=2;fillColor=swimlane;fontStyle=1;spacingTop=0;rounded=1;arcSize=9;points=[];sketch=1;fontFamily=Permanent Marker;hachureGap=8;fillWeight=1;" vertex="1" parent="AhhsZ49npr2kLPAkrbk7-9">
            <mxGeometry x="20" y="121" width="140" height="80" as="geometry" />
          </mxCell>
        </object>
        <object label="Task 8&lt;br&gt;&lt;span style=&quot;font-weight: normal&quot;&gt;&lt;i&gt;&lt;font style=&quot;font-size: 10px&quot;&gt;%status%&lt;/font&gt;&lt;/i&gt;&lt;/span&gt;" placeholders="1" id="AhhsZ49npr2kLPAkrbk7-12">
          <mxCell style="whiteSpace=wrap;html=1;strokeWidth=2;fillColor=swimlane;fontStyle=1;spacingTop=0;rounded=1;arcSize=9;points=[];sketch=1;fontFamily=Permanent Marker;hachureGap=8;fillWeight=1;" vertex="1" parent="AhhsZ49npr2kLPAkrbk7-9">
            <mxGeometry x="20" y="221" width="140" height="80" as="geometry" />
          </mxCell>
        </object>
        <object label="Task 1&lt;br&gt;&lt;span style=&quot;font-weight: normal&quot;&gt;&lt;i&gt;&lt;font style=&quot;font-size: 10px&quot;&gt;%status%&lt;/font&gt;&lt;/i&gt;&lt;/span&gt;" placeholders="1" id="AhhsZ49npr2kLPAkrbk7-13">
          <mxCell style="whiteSpace=wrap;html=1;strokeWidth=2;fillColor=swimlane;fontStyle=1;spacingTop=0;rounded=1;arcSize=9;points=[];sketch=1;fontFamily=Permanent Marker;hachureGap=8;fillWeight=1;" vertex="1" parent="AhhsZ49npr2kLPAkrbk7-1">
            <mxGeometry x="720" y="28" width="140" height="412" as="geometry" />
          </mxCell>
        </object>
      </root>
    </mxGraphModel>
  </diagram>
</mxfile>
